<svg xmlns="http://www.w3.org/2000/svg" xmlns:xlink="http://www.w3.org/1999/xlink" version="1.1" x="0px" y="0px" viewBox="0 0 164 205" enable-background="new 0 0 164 164" xml:space="preserve" height="20" width="20"><path fill-rule="evenodd" clip-rule="evenodd" d="M41.918,141.244H7.13c-3.918,0-7.13-3.209-7.13-7.13V77.977  c0-3.921,3.208-7.13,7.13-7.13h34.789c3.922,0,7.13,3.211,7.13,7.13v56.137C49.049,138.032,45.84,141.244,41.918,141.244  L41.918,141.244z M156.55,141.244h-34.789c-3.914,0-7.13-3.209-7.13-7.13V30.206c0-3.921,3.209-7.13,7.13-7.13h34.789  c3.922,0,7.13,3.215,7.13,7.13v103.909C163.68,138.028,160.472,141.244,156.55,141.244L156.55,141.244z M99.108,141.244H64.319  c-3.917,0-7.13-3.209-7.13-7.13V55.161c0-3.922,3.208-7.13,7.13-7.13h34.789c3.921,0,7.13,3.212,7.13,7.13v78.953  C106.238,138.031,103.029,141.244,99.108,141.244z"/></svg>
